<svg width="90" height="74" viewBox="0 0 90 74" fill="none" xmlns="http://www.w3.org/2000/svg">
<path d="M81.3182 15.126V15.626H81.8182H89.5V36.5005H81.8182H81.3182V37.0005V43.792H73.6364H73.1364V44.292V51.0835H65.4545H64.9545V51.5835V58.375H57.2727H56.7727V58.875V65.6665H49.0909H48.5909V66.1665V72.958H41.4091V66.1665V65.6665H40.9091H33.2273V58.875V58.375H32.7273H25.0455V51.5835V51.0835H24.5455H16.8636V44.292V43.792H16.3636H8.68182V37.0005V36.5005H8.18182H0.5V15.626H8.18182H8.68182V15.126V8.33447H16.3636H16.8636V7.83447V1.04297H32.2273V7.83447V8.33447H32.7273H40.4091V15.126V15.626H40.9091H49.0909H49.5909V15.126V8.33447H57.2727H57.7727V7.83447V1.04297H73.1364V7.83447V8.33447H73.6364H81.3182V15.126Z" fill="#3F37C9" stroke="white"/>
</svg>
