<svg width="32768" height="4254" viewBox="0 0 32768 4254" fill="none" xmlns="http://www.w3.org/2000/svg">
<path d="M5557.71 4249.41H6304.39V2883.53H7148.21C8083.07 2883.53 8847.97 2385.74 8847.97 1432.66C8847.97 564.566 8222.7 0.00193515 7233.19 0.00193515H5557.71V4249.41ZM6304.39 2209.69V679.907H7172.49C7730.98 679.907 8089.15 940.942 8089.15 1438.73C8089.15 1894.02 7737.05 2209.69 7172.49 2209.69H6304.39Z" fill="white"/>
<path d="M11093.8 4249.41C11986.1 4249.41 12617.6 3836.61 12617.6 3041.36C12617.6 2325.04 12150.2 2003.29 11251.7 1784.75C10438.3 1590.49 10244 1444.8 10244 1116.99C10244 825.601 10499 600.99 10936.1 600.99C11324.6 600.99 11707 752.754 12089.5 1038.07L12490.1 473.507C12059.1 127.484 11555.3 0 10936.1 0C10092.2 0 9497.33 443.155 9497.33 1171.62C9497.33 1966.87 10007.3 2233.98 10911.8 2446.45C11701 2634.63 11870.9 2798.54 11870.9 3102.07C11870.9 3435.95 11579.5 3648.42 11118.2 3648.42C10590 3648.42 10183.3 3448.09 9776.58 3096L9327.35 3630.21C9837.28 4085.5 10444.2 4249.41 11093.8 4249.41Z" fill="white"/>
<path d="M13495.7 4249.41H14242.4V3017.08L14904.1 2337.18L16355 4249.41H17259.5L15414 1827.25L17180.6 0.00193515H16263.9L14242.4 2136.85V0.00193515H13495.7V4249.41Z" fill="white"/>
<path d="M17894.5 4249.41H21075.5V3581.65H18641.2V2440.38H20772V1772.61H18641.2V667.766H21045.1V0.00193515H17894.5V4249.41Z" fill="white"/>
<path d="M21961.3 4249.41H25142.3V3581.65H22708V2440.38H24838.8V1772.61H22708V667.766H25112V0.00193515H21961.3V4249.41Z" fill="white"/>
<path d="M26028.1 4249.41H29008.8V3569.5H26774.8V0.00193515H26028.1V4249.41Z" fill="white"/>
<path d="M29786.7 4249.41H32767.3V3569.5H30533.4V0.00193515H29786.7V4249.41Z" fill="white"/>
<path d="M2492.66 4253.03C3554.85 4253.03 4239.76 3643.58 4239.76 2430.49V1740.5H3525.83V2465.31C3525.83 3214.06 3136.94 3597.15 2504.27 3597.15C1865.8 3597.15 1476.91 3190.85 1476.91 2436.29V1740.5H762.985V2465.31C762.985 3643.58 1436.28 4253.03 2492.66 4253.03Z" fill="white"/>
<path d="M322.712 1147.94C322.712 1237.05 250.471 1309.29 161.356 1309.29C72.2416 1309.29 0 1237.05 0 1147.94C0 1058.82 72.2416 986.579 161.356 986.579C250.471 986.579 322.712 1058.82 322.712 1147.94Z" fill="white"/>
<path d="M811.393 1147.94C811.393 1237.05 739.151 1309.29 650.037 1309.29C560.922 1309.29 488.68 1237.05 488.68 1147.94C488.68 1058.82 560.922 986.579 650.037 986.579C739.151 986.579 811.393 1058.82 811.393 1147.94Z" fill="white"/>
<path d="M811.393 659.257C811.393 748.372 739.151 820.613 650.037 820.613C560.922 820.613 488.68 748.372 488.68 659.257C488.68 570.143 560.922 497.901 650.037 497.901C739.151 497.901 811.393 570.143 811.393 659.257Z" fill="white"/>
<path d="M1309.29 1147.94C1309.29 1237.05 1234.98 1309.29 1143.32 1309.29C1051.66 1309.29 977.358 1237.05 977.358 1147.94C977.358 1058.82 1051.66 986.579 1143.32 986.579C1234.98 986.579 1309.29 1058.82 1309.29 1147.94Z" fill="white"/>
<path d="M1309.29 659.257C1309.29 748.372 1234.98 820.613 1143.32 820.613C1051.66 820.613 977.358 748.372 977.358 659.257C977.358 570.143 1051.66 497.901 1143.32 497.901C1234.98 497.901 1309.29 570.143 1309.29 659.257Z" fill="white"/>
<path d="M1309.29 165.966C1309.29 257.627 1234.98 331.933 1143.32 331.933C1051.66 331.933 977.358 257.627 977.358 165.966C977.358 74.3057 1051.66 0 1143.32 0C1234.98 0 1309.29 74.3057 1309.29 165.966Z" fill="white"/>
<path d="M1797.97 1147.94C1797.97 1237.05 1723.66 1309.29 1632 1309.29C1540.34 1309.29 1466.04 1237.05 1466.04 1147.94C1466.04 1058.82 1540.34 986.579 1632 986.579C1723.66 986.579 1797.97 1058.82 1797.97 1147.94Z" fill="white"/>
<path d="M1797.97 659.257C1797.97 748.372 1723.66 820.613 1632 820.613C1540.34 820.613 1466.04 748.372 1466.04 659.257C1466.04 570.143 1540.34 497.901 1632 497.901C1723.66 497.901 1797.97 570.143 1797.97 659.257Z" fill="white"/>
<path d="M2286.65 1147.94C2286.65 1237.05 2214.41 1309.29 2125.29 1309.29C2036.18 1309.29 1963.94 1237.05 1963.94 1147.94C1963.94 1058.82 2036.18 986.579 2125.29 986.579C2214.41 986.579 2286.65 1058.82 2286.65 1147.94Z" fill="white"/>
<path d="M3070.38 1147.94C3070.38 1237.05 2998.14 1309.29 2909.02 1309.29C2819.91 1309.29 2747.67 1237.05 2747.67 1147.94C2747.67 1058.82 2819.91 986.579 2909.02 986.579C2998.14 986.579 3070.38 1058.82 3070.38 1147.94Z" fill="white"/>
<path d="M3559.06 1147.94C3559.06 1237.05 3486.82 1309.29 3397.7 1309.29C3308.59 1309.29 3236.35 1237.05 3236.35 1147.94C3236.35 1058.82 3308.59 986.579 3397.7 986.579C3486.82 986.579 3559.06 1058.82 3559.06 1147.94Z" fill="white"/>
<path d="M3559.06 659.257C3559.06 748.372 3486.82 820.613 3397.7 820.613C3308.59 820.613 3236.35 748.372 3236.35 659.257C3236.35 570.143 3308.59 497.901 3397.7 497.901C3486.82 497.901 3559.06 570.143 3559.06 659.257Z" fill="white"/>
<path d="M4056.96 1147.94C4056.96 1237.05 3982.65 1309.29 3890.99 1309.29C3799.33 1309.29 3725.02 1237.05 3725.02 1147.94C3725.02 1058.82 3799.33 986.579 3890.99 986.579C3982.65 986.579 4056.96 1058.82 4056.96 1147.94Z" fill="white"/>
<path d="M4056.96 659.257C4056.96 748.372 3982.65 820.613 3890.99 820.613C3799.33 820.613 3725.02 748.372 3725.02 659.257C3725.02 570.143 3799.33 497.901 3890.99 497.901C3982.65 497.901 4056.96 570.143 4056.96 659.257Z" fill="white"/>
<path d="M4057.2 165.966C4057.2 257.627 3982.89 331.933 3891.23 331.933C3799.57 331.933 3725.26 257.627 3725.26 165.966C3725.26 74.3057 3799.57 0 3891.23 0C3982.89 0 4057.2 74.3057 4057.2 165.966Z" fill="white"/>
<path d="M4545.64 1147.94C4545.64 1237.05 4471.33 1309.29 4379.67 1309.29C4288.01 1309.29 4213.7 1237.05 4213.7 1147.94C4213.7 1058.82 4288.01 986.579 4379.67 986.579C4471.33 986.579 4545.64 1058.82 4545.64 1147.94Z" fill="white"/>
<path d="M4545.64 659.257C4545.64 748.372 4471.33 820.613 4379.67 820.613C4288.01 820.613 4213.7 748.372 4213.7 659.257C4213.7 570.143 4288.01 497.901 4379.67 497.901C4471.33 497.901 4545.64 570.143 4545.64 659.257Z" fill="white"/>
<path d="M5034.31 1147.94C5034.31 1237.05 4962.07 1309.29 4872.96 1309.29C4783.84 1309.29 4711.6 1237.05 4711.6 1147.94C4711.6 1058.82 4783.84 986.579 4872.96 986.579C4962.07 986.579 5034.31 1058.82 5034.31 1147.94Z" fill="white"/>
</svg>
